<?xml version="1.0" encoding="UTF-8" standalone="no"?>
<!DOCTYPE svg PUBLIC "-//W3C//DTD SVG 1.1//EN"
 "http://www.w3.org/Graphics/SVG/1.1/DTD/svg11.dtd">
<!-- Generated by graphviz version 2.36.0 (20140111.2315)
 -->
<!-- Title: controllers_diagram Pages: 1 -->
<svg width="659pt" height="488pt"
 viewBox="0.00 0.00 659.38 488.00" xmlns="http://www.w3.org/2000/svg" xmlns:xlink="http://www.w3.org/1999/xlink">
<g id="graph0" class="graph" transform="scale(1 1) rotate(0) translate(4 484)">
<title>controllers_diagram</title>
<polygon fill="white" stroke="none" points="-4,4 -4,-484 655.375,-484 655.375,4 -4,4"/>
<!-- _diagram_info -->
<g id="node1" class="node"><title>_diagram_info</title>
<text text-anchor="start" x="452" y="-465.6" font-family="Times,serif" font-size="13.00">Controllers diagram</text>
<text text-anchor="start" x="452" y="-452.6" font-family="Times,serif" font-size="13.00">Date: Apr 11 2014 &#45; 11:08</text>
<text text-anchor="start" x="452" y="-439.6" font-family="Times,serif" font-size="13.00">Migration version: 20140410220825</text>
<text text-anchor="start" x="452" y="-426.6" font-family="Times,serif" font-size="13.00">Generated by RailRoady 1.1.1</text>
<text text-anchor="start" x="452" y="-413.6" font-family="Times,serif" font-size="13.00">http://railroady.prestonlee.com</text>
</g>
<!-- ApplicationController -->
<g id="node2" class="node"><title>ApplicationController</title>
<path fill="none" stroke="black" d="M178.368,-98.6288C178.368,-98.6288 294.01,-98.6288 294.01,-98.6288 300.01,-98.6288 306.01,-104.629 306.01,-110.629 306.01,-110.629 306.01,-206.629 306.01,-206.629 306.01,-212.629 300.01,-218.629 294.01,-218.629 294.01,-218.629 178.368,-218.629 178.368,-218.629 172.368,-218.629 166.368,-212.629 166.368,-206.629 166.368,-206.629 166.368,-110.629 166.368,-110.629 166.368,-104.629 172.368,-98.6288 178.368,-98.6288"/>
<text text-anchor="middle" x="236.189" y="-203.429" font-family="Times,serif" font-size="14.00">ApplicationController</text>
<polyline fill="none" stroke="black" points="166.368,-196.629 306.01,-196.629 "/>
<polyline fill="none" stroke="black" points="166.368,-172.629 306.01,-172.629 "/>
<polyline fill="none" stroke="black" points="166.368,-148.629 306.01,-148.629 "/>
<text text-anchor="start" x="174.368" y="-133.429" font-family="Times,serif" font-size="14.00">_layout</text>
<text text-anchor="start" x="174.368" y="-119.429" font-family="Times,serif" font-size="14.00">authorize</text>
<text text-anchor="start" x="174.368" y="-105.429" font-family="Times,serif" font-size="14.00">current_user</text>
</g>
<!-- LevelsController -->
<g id="node3" class="node"><title>LevelsController</title>
<path fill="none" stroke="black" d="M335.08,-2.30878C335.08,-2.30878 421.943,-2.30878 421.943,-2.30878 427.943,-2.30878 433.943,-8.30878 433.943,-14.3088 433.943,-14.3088 433.943,-80.3088 433.943,-80.3088 433.943,-86.3088 427.943,-92.3088 421.943,-92.3088 421.943,-92.3088 335.08,-92.3088 335.08,-92.3088 329.08,-92.3088 323.08,-86.3088 323.08,-80.3088 323.08,-80.3088 323.08,-14.3088 323.08,-14.3088 323.08,-8.30878 329.08,-2.30878 335.08,-2.30878"/>
<text text-anchor="middle" x="378.512" y="-77.1088" font-family="Times,serif" font-size="14.00">LevelsController</text>
<polyline fill="none" stroke="black" points="323.08,-70.3088 433.943,-70.3088 "/>
<text text-anchor="start" x="331.08" y="-55.1088" font-family="Times,serif" font-size="14.00">show</text>
<polyline fill="none" stroke="black" points="323.08,-48.3088 433.943,-48.3088 "/>
<polyline fill="none" stroke="black" points="323.08,-24.3088 433.943,-24.3088 "/>
<text text-anchor="start" x="331.08" y="-9.10878" font-family="Times,serif" font-size="14.00">_layout</text>
</g>
<!-- ApplicationController&#45;&gt;LevelsController -->
<g id="edge1" class="edge"><title>ApplicationController&#45;&gt;LevelsController</title>
<path fill="none" stroke="black" d="M306.1,-103.947C311.723,-99.5484 317.358,-95.1414 322.862,-90.8363"/>
</g>
<!-- PagesController -->
<g id="node4" class="node"><title>PagesController</title>
<path fill="none" stroke="black" d="M52.9521,-0.5C52.9521,-0.5 135.159,-0.5 135.159,-0.5 141.159,-0.5 147.159,-6.5 147.159,-12.5 147.159,-12.5 147.159,-78.5 147.159,-78.5 147.159,-84.5 141.159,-90.5 135.159,-90.5 135.159,-90.5 52.9521,-90.5 52.9521,-90.5 46.9521,-90.5 40.9521,-84.5 40.9521,-78.5 40.9521,-78.5 40.9521,-12.5 40.9521,-12.5 40.9521,-6.5 46.9521,-0.5 52.9521,-0.5"/>
<text text-anchor="middle" x="94.0556" y="-75.3" font-family="Times,serif" font-size="14.00">PagesController</text>
<polyline fill="none" stroke="black" points="40.9521,-68.5 147.159,-68.5 "/>
<text text-anchor="start" x="48.9521" y="-53.3" font-family="Times,serif" font-size="14.00">index</text>
<polyline fill="none" stroke="black" points="40.9521,-46.5 147.159,-46.5 "/>
<polyline fill="none" stroke="black" points="40.9521,-22.5 147.159,-22.5 "/>
<text text-anchor="start" x="48.9521" y="-7.3" font-family="Times,serif" font-size="14.00">_layout</text>
</g>
<!-- ApplicationController&#45;&gt;PagesController -->
<g id="edge2" class="edge"><title>ApplicationController&#45;&gt;PagesController</title>
<path fill="none" stroke="black" d="M165.955,-102.727C159.661,-97.7172 153.357,-92.7003 147.243,-87.8337"/>
</g>
<!-- SessionsController -->
<g id="node5" class="node"><title>SessionsController</title>
<path fill="none" stroke="black" d="M12,-230.655C12,-230.655 109.779,-230.655 109.779,-230.655 115.779,-230.655 121.779,-236.655 121.779,-242.655 121.779,-242.655 121.779,-336.655 121.779,-336.655 121.779,-342.655 115.779,-348.655 109.779,-348.655 109.779,-348.655 12,-348.655 12,-348.655 6,-348.655 0,-342.655 0,-336.655 0,-336.655 0,-242.655 0,-242.655 0,-236.655 6,-230.655 12,-230.655"/>
<text text-anchor="middle" x="60.8896" y="-333.455" font-family="Times,serif" font-size="14.00">SessionsController</text>
<polyline fill="none" stroke="black" points="0,-326.655 121.779,-326.655 "/>
<text text-anchor="start" x="8" y="-311.455" font-family="Times,serif" font-size="14.00">create</text>
<text text-anchor="start" x="8" y="-297.455" font-family="Times,serif" font-size="14.00">destroy</text>
<text text-anchor="start" x="8" y="-283.455" font-family="Times,serif" font-size="14.00">new</text>
<polyline fill="none" stroke="black" points="0,-276.655 121.779,-276.655 "/>
<polyline fill="none" stroke="black" points="0,-252.655 121.779,-252.655 "/>
<text text-anchor="start" x="8" y="-237.455" font-family="Times,serif" font-size="14.00">_layout</text>
</g>
<!-- ApplicationController&#45;&gt;SessionsController -->
<g id="edge3" class="edge"><title>ApplicationController&#45;&gt;SessionsController</title>
<path fill="none" stroke="black" d="M166.15,-210.979C151.559,-221.884 136.289,-233.298 122.049,-243.942"/>
</g>
<!-- UserLevelsController -->
<g id="node6" class="node"><title>UserLevelsController</title>
<path fill="none" stroke="black" d="M349.274,-249.274C349.274,-249.274 462.571,-249.274 462.571,-249.274 468.571,-249.274 474.571,-255.274 474.571,-261.274 474.571,-261.274 474.571,-327.274 474.571,-327.274 474.571,-333.274 468.571,-339.274 462.571,-339.274 462.571,-339.274 349.274,-339.274 349.274,-339.274 343.274,-339.274 337.274,-333.274 337.274,-327.274 337.274,-327.274 337.274,-261.274 337.274,-261.274 337.274,-255.274 343.274,-249.274 349.274,-249.274"/>
<text text-anchor="middle" x="405.923" y="-324.074" font-family="Times,serif" font-size="14.00">UserLevelsController</text>
<polyline fill="none" stroke="black" points="337.274,-317.274 474.571,-317.274 "/>
<text text-anchor="start" x="345.274" y="-302.074" font-family="Times,serif" font-size="14.00">execute</text>
<polyline fill="none" stroke="black" points="337.274,-295.274 474.571,-295.274 "/>
<polyline fill="none" stroke="black" points="337.274,-271.274 474.571,-271.274 "/>
<text text-anchor="start" x="345.274" y="-256.074" font-family="Times,serif" font-size="14.00">_layout</text>
</g>
<!-- ApplicationController&#45;&gt;UserLevelsController -->
<g id="edge4" class="edge"><title>ApplicationController&#45;&gt;UserLevelsController</title>
<path fill="none" stroke="black" d="M306.206,-214.584C320.635,-226.115 335.654,-238.118 349.525,-249.203"/>
</g>
<!-- UsersController -->
<g id="node7" class="node"><title>UsersController</title>
<path fill="none" stroke="black" d="M182.89,-276.557C182.89,-276.557 275.966,-276.557 275.966,-276.557 281.966,-276.557 287.966,-282.557 287.966,-288.557 287.966,-288.557 287.966,-396.557 287.966,-396.557 287.966,-402.557 281.966,-408.557 275.966,-408.557 275.966,-408.557 182.89,-408.557 182.89,-408.557 176.89,-408.557 170.89,-402.557 170.89,-396.557 170.89,-396.557 170.89,-288.557 170.89,-288.557 170.89,-282.557 176.89,-276.557 182.89,-276.557"/>
<text text-anchor="middle" x="229.428" y="-393.357" font-family="Times,serif" font-size="14.00">UsersController</text>
<polyline fill="none" stroke="black" points="170.89,-386.557 287.966,-386.557 "/>
<text text-anchor="start" x="178.89" y="-371.357" font-family="Times,serif" font-size="14.00">create</text>
<text text-anchor="start" x="178.89" y="-357.357" font-family="Times,serif" font-size="14.00">new</text>
<text text-anchor="start" x="178.89" y="-343.357" font-family="Times,serif" font-size="14.00">show</text>
<polyline fill="none" stroke="black" points="170.89,-336.557 287.966,-336.557 "/>
<polyline fill="none" stroke="black" points="170.89,-312.557 287.966,-312.557 "/>
<text text-anchor="start" x="178.89" y="-297.357" font-family="Times,serif" font-size="14.00">_layout</text>
<text text-anchor="start" x="178.89" y="-283.357" font-family="Times,serif" font-size="14.00">new_user_params</text>
</g>
<!-- ApplicationController&#45;&gt;UsersController -->
<g id="edge5" class="edge"><title>ApplicationController&#45;&gt;UsersController</title>
<path fill="none" stroke="black" d="M233.975,-218.854C233.297,-237.293 232.548,-257.672 231.857,-276.479"/>
</g>
</g>
</svg>
