<?xml version="1.0" encoding="UTF-8" standalone="no"?>
<!DOCTYPE svg PUBLIC "-//W3C//DTD SVG 1.1//EN"
 "http://www.w3.org/Graphics/SVG/1.1/DTD/svg11.dtd">
<!-- Generated by graphviz version 2.36.0 (20140111.2315)
 -->
<!-- Title: models_diagram Pages: 1 -->
<svg width="395pt" height="732pt"
 viewBox="0.00 0.00 395.00 732.00" xmlns="http://www.w3.org/2000/svg" xmlns:xlink="http://www.w3.org/1999/xlink">
<g id="graph0" class="graph" transform="scale(1 1) rotate(0) translate(4 728)">
<title>models_diagram</title>
<polygon fill="white" stroke="none" points="-4,4 -4,-728 391,-728 391,4 -4,4"/>
<!-- _diagram_info -->
<g id="node1" class="node"><title>_diagram_info</title>
<text text-anchor="start" x="7.31226" y="-709.1" font-family="Times,serif" font-size="13.00">Models diagram</text>
<text text-anchor="start" x="7.31226" y="-696.1" font-family="Times,serif" font-size="13.00">Date: Apr 11 2014 &#45; 11:08</text>
<text text-anchor="start" x="7.31226" y="-683.1" font-family="Times,serif" font-size="13.00">Migration version: 20140410220825</text>
<text text-anchor="start" x="7.31226" y="-670.1" font-family="Times,serif" font-size="13.00">Generated by RailRoady 1.1.1</text>
<text text-anchor="start" x="7.31226" y="-657.1" font-family="Times,serif" font-size="13.00">http://railroady.prestonlee.com</text>
</g>
<!-- Level -->
<g id="node2" class="node"><title>Level</title>
<path fill="none" stroke="black" d="M183.605,-153C183.605,-153 300.395,-153 300.395,-153 306.395,-153 312.395,-159 312.395,-165 312.395,-165 312.395,-297 312.395,-297 312.395,-303 306.395,-309 300.395,-309 300.395,-309 183.605,-309 183.605,-309 177.605,-309 171.605,-303 171.605,-297 171.605,-297 171.605,-165 171.605,-165 171.605,-159 177.605,-153 183.605,-153"/>
<text text-anchor="middle" x="242" y="-293.8" font-family="Times,serif" font-size="14.00">Level</text>
<polyline fill="none" stroke="black" points="171.605,-287 312.395,-287 "/>
<text text-anchor="start" x="179.605" y="-271.8" font-family="Times,serif" font-size="14.00">id :integer</text>
<text text-anchor="start" x="179.605" y="-257.8" font-family="Times,serif" font-size="14.00">title :string</text>
<text text-anchor="start" x="179.605" y="-243.8" font-family="Times,serif" font-size="14.00">prompt :text</text>
<text text-anchor="start" x="179.605" y="-229.8" font-family="Times,serif" font-size="14.00">stage_number :integer</text>
<text text-anchor="start" x="179.605" y="-215.8" font-family="Times,serif" font-size="14.00">created_at :datetime</text>
<text text-anchor="start" x="179.605" y="-201.8" font-family="Times,serif" font-size="14.00">updated_at :datetime</text>
<text text-anchor="start" x="179.605" y="-187.8" font-family="Times,serif" font-size="14.00">database_path :string</text>
<text text-anchor="start" x="179.605" y="-173.8" font-family="Times,serif" font-size="14.00">dump :text</text>
<text text-anchor="start" x="179.605" y="-159.8" font-family="Times,serif" font-size="14.00">answer :text</text>
</g>
<!-- UserDatabase -->
<g id="node4" class="node"><title>UserDatabase</title>
<path fill="none" stroke="black" d="M187.495,-1C187.495,-1 296.505,-1 296.505,-1 302.505,-1 308.505,-7 308.505,-13 308.505,-13 308.505,-103 308.505,-103 308.505,-109 302.505,-115 296.505,-115 296.505,-115 187.495,-115 187.495,-115 181.495,-115 175.495,-109 175.495,-103 175.495,-103 175.495,-13 175.495,-13 175.495,-7 181.495,-1 187.495,-1"/>
<text text-anchor="middle" x="242" y="-99.8" font-family="Times,serif" font-size="14.00">UserDatabase</text>
<polyline fill="none" stroke="black" points="175.495,-93 308.505,-93 "/>
<text text-anchor="start" x="183.495" y="-77.8" font-family="Times,serif" font-size="14.00">id :integer</text>
<text text-anchor="start" x="183.495" y="-63.8" font-family="Times,serif" font-size="14.00">name :string</text>
<text text-anchor="start" x="183.495" y="-49.8" font-family="Times,serif" font-size="14.00">user_id :integer</text>
<text text-anchor="start" x="183.495" y="-35.8" font-family="Times,serif" font-size="14.00">created_at :datetime</text>
<text text-anchor="start" x="183.495" y="-21.8" font-family="Times,serif" font-size="14.00">updated_at :datetime</text>
<text text-anchor="start" x="183.495" y="-7.8" font-family="Times,serif" font-size="14.00">level_id :integer</text>
</g>
<!-- Level&#45;&gt;UserDatabase -->
<g id="edge1" class="edge"><title>Level&#45;&gt;UserDatabase</title>
<path fill="none" stroke="#6e9d3b" d="M242,-144.488C242,-138.075 242,-131.662 242,-125.394"/>
<ellipse fill="none" stroke="#6e9d3b" cx="242" cy="-148.505" rx="4" ry="4"/>
<polygon fill="#6e9d3b" stroke="#6e9d3b" points="242,-125.007 246.5,-115.007 242,-120.007 242,-115.007 242,-115.007 242,-115.007 242,-120.007 237.5,-115.007 242,-125.007 242,-125.007"/>
</g>
<!-- User -->
<g id="node3" class="node"><title>User</title>
<path fill="none" stroke="black" d="M96.6982,-499C96.6982,-499 221.302,-499 221.302,-499 227.302,-499 233.302,-505 233.302,-511 233.302,-511 233.302,-601 233.302,-601 233.302,-607 227.302,-613 221.302,-613 221.302,-613 96.6982,-613 96.6982,-613 90.6982,-613 84.6982,-607 84.6982,-601 84.6982,-601 84.6982,-511 84.6982,-511 84.6982,-505 90.6982,-499 96.6982,-499"/>
<text text-anchor="middle" x="159" y="-597.8" font-family="Times,serif" font-size="14.00">User</text>
<polyline fill="none" stroke="black" points="84.6982,-591 233.302,-591 "/>
<text text-anchor="start" x="92.6982" y="-575.8" font-family="Times,serif" font-size="14.00">id :integer</text>
<text text-anchor="start" x="92.6982" y="-561.8" font-family="Times,serif" font-size="14.00">user_name :string</text>
<text text-anchor="start" x="92.6982" y="-547.8" font-family="Times,serif" font-size="14.00">email :string</text>
<text text-anchor="start" x="92.6982" y="-533.8" font-family="Times,serif" font-size="14.00">password_digest :string</text>
<text text-anchor="start" x="92.6982" y="-519.8" font-family="Times,serif" font-size="14.00">created_at :datetime</text>
<text text-anchor="start" x="92.6982" y="-505.8" font-family="Times,serif" font-size="14.00">updated_at :datetime</text>
</g>
<!-- User&#45;&gt;Level -->
<g id="edge4" class="edge"><title>User&#45;&gt;Level</title>
<path fill="none" stroke="#04a612" d="M152.072,-488.488C149.923,-446.615 151.232,-391.984 166,-346 169.027,-336.573 173.08,-327.198 177.743,-318.107"/>
<polygon fill="#04a612" stroke="#04a612" points="152.078,-488.591 148.176,-498.839 152.373,-493.582 152.668,-498.574 152.668,-498.574 152.668,-498.574 152.373,-493.582 157.16,-498.308 152.078,-488.591 152.078,-488.591"/>
<polygon fill="#04a612" stroke="#04a612" points="177.845,-317.918 186.555,-311.256 180.22,-313.518 182.596,-309.119 182.596,-309.119 182.596,-309.119 180.22,-313.518 178.636,-306.981 177.845,-317.918 177.845,-317.918"/>
</g>
<!-- User&#45;&gt;UserDatabase -->
<g id="edge5" class="edge"><title>User&#45;&gt;UserDatabase</title>
<path fill="none" stroke="#bae810" d="M145.466,-490.759C131.293,-408.714 116.889,-263.962 163,-152 167.359,-141.416 173.397,-131.157 180.211,-121.557"/>
<ellipse fill="none" stroke="#bae810" cx="146.226" cy="-495.047" rx="4.00001" ry="4.00001"/>
<ellipse fill="#bae810" stroke="#bae810" cx="182.664" cy="-118.237" rx="4.00002" ry="4.00002"/>
</g>
<!-- UserLevel -->
<g id="node5" class="node"><title>UserLevel</title>
<path fill="none" stroke="black" d="M187.495,-347C187.495,-347 296.505,-347 296.505,-347 302.505,-347 308.505,-353 308.505,-359 308.505,-359 308.505,-449 308.505,-449 308.505,-455 302.505,-461 296.505,-461 296.505,-461 187.495,-461 187.495,-461 181.495,-461 175.495,-455 175.495,-449 175.495,-449 175.495,-359 175.495,-359 175.495,-353 181.495,-347 187.495,-347"/>
<text text-anchor="middle" x="242" y="-445.8" font-family="Times,serif" font-size="14.00">UserLevel</text>
<polyline fill="none" stroke="black" points="175.495,-439 308.505,-439 "/>
<text text-anchor="start" x="183.495" y="-423.8" font-family="Times,serif" font-size="14.00">id :integer</text>
<text text-anchor="start" x="183.495" y="-409.8" font-family="Times,serif" font-size="14.00">user_id :integer</text>
<text text-anchor="start" x="183.495" y="-395.8" font-family="Times,serif" font-size="14.00">level_id :integer</text>
<text text-anchor="start" x="183.495" y="-381.8" font-family="Times,serif" font-size="14.00">completed :boolean</text>
<text text-anchor="start" x="183.495" y="-367.8" font-family="Times,serif" font-size="14.00">created_at :datetime</text>
<text text-anchor="start" x="183.495" y="-353.8" font-family="Times,serif" font-size="14.00">updated_at :datetime</text>
</g>
<!-- User&#45;&gt;UserLevel -->
<g id="edge3" class="edge"><title>User&#45;&gt;UserLevel</title>
<path fill="none" stroke="#cc3352" d="M194.171,-491.438C198.093,-484.35 202.093,-477.121 206.025,-470.015"/>
<ellipse fill="none" stroke="#cc3352" cx="192.079" cy="-495.219" rx="4.00002" ry="4.00002"/>
<polygon fill="#cc3352" stroke="#cc3352" points="206.118,-469.848 214.897,-463.277 208.538,-465.473 210.959,-461.098 210.959,-461.098 210.959,-461.098 208.538,-465.473 207.022,-458.919 206.118,-469.848 206.118,-469.848"/>
</g>
<!-- UserLevel&#45;&gt;Level -->
<g id="edge8" class="edge"><title>UserLevel&#45;&gt;Level</title>
<path fill="none" stroke="#31432c" d="M242,-338.282C242,-331.444 242,-324.418 242,-317.394"/>
<ellipse fill="none" stroke="#31432c" cx="242" cy="-342.534" rx="4" ry="4"/>
<ellipse fill="#31432c" stroke="#31432c" cx="242" cy="-313.159" rx="4" ry="4"/>
</g>
<!-- ActiveRecord::Base -->
<g id="node6" class="node"><title>ActiveRecord::Base</title>
<ellipse fill="none" stroke="black" cx="306" cy="-687" rx="80.9821" ry="18"/>
<text text-anchor="middle" x="306" y="-682.8" font-family="Times,serif" font-size="14.00">ActiveRecord::Base</text>
</g>
<!-- ActiveRecord::Base&#45;&gt;Level -->
<g id="edge2" class="edge"><title>ActiveRecord::Base&#45;&gt;Level</title>
<path fill="none" stroke="black" d="M310.299,-668.883C322.24,-618.215 352.663,-465.094 317,-346 313.228,-333.404 307.567,-320.912 301.012,-309.07"/>
</g>
<!-- ActiveRecord::Base&#45;&gt;User -->
<g id="edge6" class="edge"><title>ActiveRecord::Base&#45;&gt;User</title>
<path fill="none" stroke="black" d="M287.083,-669.4C270.799,-655.109 246.326,-633.633 223.121,-613.269"/>
</g>
<!-- ActiveRecord::Base&#45;&gt;UserDatabase -->
<g id="edge7" class="edge"><title>ActiveRecord::Base&#45;&gt;UserDatabase</title>
<path fill="none" stroke="black" d="M316.968,-669.072C325.409,-654.978 336.386,-634.046 341,-614 387.102,-413.712 400.723,-341.433 321,-152 315.535,-139.015 307.579,-126.501 298.794,-115.089"/>
</g>
<!-- ActiveRecord::Base&#45;&gt;UserLevel -->
<g id="edge9" class="edge"><title>ActiveRecord::Base&#45;&gt;UserLevel</title>
<path fill="none" stroke="black" d="M302.093,-668.845C292.893,-628.45 269.531,-525.88 254.795,-461.177"/>
</g>
</g>
</svg>
