<?xml version="1.0" encoding="UTF-8" standalone="no"?>
<!DOCTYPE svg PUBLIC "-//W3C//DTD SVG 1.1//EN"
 "http://www.w3.org/Graphics/SVG/1.1/DTD/svg11.dtd">
<!-- Generated by graphviz version 2.36.0 (20140111.2315)
 -->
<!-- Title: models_diagram Pages: 1 -->
<svg width="928pt" height="952pt"
 viewBox="0.00 0.00 928.00 952.00" xmlns="http://www.w3.org/2000/svg" xmlns:xlink="http://www.w3.org/1999/xlink">
<g id="graph0" class="graph" transform="scale(1 1) rotate(0) translate(4 948)">
<title>models_diagram</title>
<polygon fill="white" stroke="none" points="-4,4 -4,-948 924,-948 924,4 -4,4"/>
<!-- _diagram_info -->
<g id="node1" class="node"><title>_diagram_info</title>
<text text-anchor="start" x="8" y="-929.6" font-family="Times,serif" font-size="13.00">Models diagram</text>
<text text-anchor="start" x="8" y="-915.6" font-family="Times,serif" font-size="13.00">Date: Apr 15 2014 &#45; 13:49</text>
<text text-anchor="start" x="8" y="-901.6" font-family="Times,serif" font-size="13.00">Migration version: 20140414214030</text>
<text text-anchor="start" x="8" y="-887.6" font-family="Times,serif" font-size="13.00">Generated by RailRoady 1.1.1</text>
<text text-anchor="start" x="8" y="-873.6" font-family="Times,serif" font-size="13.00">http://railroady.prestonlee.com</text>
</g>
<!-- GameResponse -->
<g id="node2" class="node"><title>GameResponse</title>
<polygon fill="none" stroke="black" points="209,-746 209,-792 313,-792 313,-746 209,-746"/>
<text text-anchor="middle" x="261" y="-776.8" font-family="Times,serif" font-size="14.00">GameResponse</text>
<polyline fill="none" stroke="black" points="209,-769 313,-769 "/>
<text text-anchor="middle" x="261" y="-753.8" font-family="Times,serif" font-size="14.00"> </text>
</g>
<!-- Level -->
<g id="node3" class="node"><title>Level</title>
<path fill="none" stroke="black" d="M502.5,-332.5C502.5,-332.5 619.5,-332.5 619.5,-332.5 625.5,-332.5 631.5,-338.5 631.5,-344.5 631.5,-344.5 631.5,-501.5 631.5,-501.5 631.5,-507.5 625.5,-513.5 619.5,-513.5 619.5,-513.5 502.5,-513.5 502.5,-513.5 496.5,-513.5 490.5,-507.5 490.5,-501.5 490.5,-501.5 490.5,-344.5 490.5,-344.5 490.5,-338.5 496.5,-332.5 502.5,-332.5"/>
<text text-anchor="middle" x="561" y="-498.3" font-family="Times,serif" font-size="14.00">Level</text>
<polyline fill="none" stroke="black" points="490.5,-490.5 631.5,-490.5 "/>
<text text-anchor="start" x="498.5" y="-475.3" font-family="Times,serif" font-size="14.00">id :integer</text>
<text text-anchor="start" x="498.5" y="-460.3" font-family="Times,serif" font-size="14.00">title :string</text>
<text text-anchor="start" x="498.5" y="-445.3" font-family="Times,serif" font-size="14.00">prompt :text</text>
<text text-anchor="start" x="498.5" y="-430.3" font-family="Times,serif" font-size="14.00">stage_number :integer</text>
<text text-anchor="start" x="498.5" y="-415.3" font-family="Times,serif" font-size="14.00">created_at :datetime</text>
<text text-anchor="start" x="498.5" y="-400.3" font-family="Times,serif" font-size="14.00">updated_at :datetime</text>
<text text-anchor="start" x="498.5" y="-385.3" font-family="Times,serif" font-size="14.00">database_path :string</text>
<text text-anchor="start" x="498.5" y="-370.3" font-family="Times,serif" font-size="14.00">dump :text</text>
<text text-anchor="start" x="498.5" y="-355.3" font-family="Times,serif" font-size="14.00">answer :text</text>
<text text-anchor="start" x="498.5" y="-340.3" font-family="Times,serif" font-size="14.00">level_type :string</text>
</g>
<!-- LevelPage -->
<g id="node4" class="node"><title>LevelPage</title>
<path fill="none" stroke="black" d="M427.5,-166.5C427.5,-166.5 542.5,-166.5 542.5,-166.5 548.5,-166.5 554.5,-172.5 554.5,-178.5 554.5,-178.5 554.5,-275.5 554.5,-275.5 554.5,-281.5 548.5,-287.5 542.5,-287.5 542.5,-287.5 427.5,-287.5 427.5,-287.5 421.5,-287.5 415.5,-281.5 415.5,-275.5 415.5,-275.5 415.5,-178.5 415.5,-178.5 415.5,-172.5 421.5,-166.5 427.5,-166.5"/>
<text text-anchor="middle" x="485" y="-272.3" font-family="Times,serif" font-size="14.00">LevelPage</text>
<polyline fill="none" stroke="black" points="415.5,-264.5 554.5,-264.5 "/>
<text text-anchor="start" x="423.5" y="-249.3" font-family="Times,serif" font-size="14.00">id :integer</text>
<text text-anchor="start" x="423.5" y="-234.3" font-family="Times,serif" font-size="14.00">level_id :integer</text>
<text text-anchor="start" x="423.5" y="-219.3" font-family="Times,serif" font-size="14.00">page_number :integer</text>
<text text-anchor="start" x="423.5" y="-204.3" font-family="Times,serif" font-size="14.00">content :text</text>
<text text-anchor="start" x="423.5" y="-189.3" font-family="Times,serif" font-size="14.00">created_at :datetime</text>
<text text-anchor="start" x="423.5" y="-174.3" font-family="Times,serif" font-size="14.00">updated_at :datetime</text>
</g>
<!-- Level&#45;&gt;LevelPage -->
<g id="edge3" class="edge"><title>Level&#45;&gt;LevelPage</title>
<path fill="none" stroke="#b81c86" d="M522.958,-324.893C519.257,-315.445 515.556,-305.997 511.996,-296.91"/>
<ellipse fill="none" stroke="#b81c86" cx="524.433" cy="-328.658" rx="4.00001" ry="4.00001"/>
<polygon fill="#b81c86" stroke="#b81c86" points="511.991,-296.897 512.533,-285.944 510.167,-292.241 508.343,-287.586 508.343,-287.586 508.343,-287.586 510.167,-292.241 504.153,-289.227 511.991,-296.897 511.991,-296.897"/>
</g>
<!-- LevelSchema -->
<g id="node5" class="node"><title>LevelSchema</title>
<path fill="none" stroke="black" d="M740,-174C740,-174 850,-174 850,-174 856,-174 862,-180 862,-186 862,-186 862,-268 862,-268 862,-274 856,-280 850,-280 850,-280 740,-280 740,-280 734,-280 728,-274 728,-268 728,-268 728,-186 728,-186 728,-180 734,-174 740,-174"/>
<text text-anchor="middle" x="795" y="-264.8" font-family="Times,serif" font-size="14.00">LevelSchema</text>
<polyline fill="none" stroke="black" points="728,-257 862,-257 "/>
<text text-anchor="start" x="736" y="-241.8" font-family="Times,serif" font-size="14.00">id :integer</text>
<text text-anchor="start" x="736" y="-226.8" font-family="Times,serif" font-size="14.00">level_id :integer</text>
<text text-anchor="start" x="736" y="-211.8" font-family="Times,serif" font-size="14.00">table_name :string</text>
<text text-anchor="start" x="736" y="-196.8" font-family="Times,serif" font-size="14.00">created_at :datetime</text>
<text text-anchor="start" x="736" y="-181.8" font-family="Times,serif" font-size="14.00">updated_at :datetime</text>
</g>
<!-- Level&#45;&gt;LevelSchema -->
<g id="edge5" class="edge"><title>Level&#45;&gt;LevelSchema</title>
<path fill="none" stroke="#52e87c" d="M637.98,-361.407C663.642,-340.894 692.245,-317.686 718,-296 721.47,-293.078 725.011,-290.065 728.574,-287.009"/>
<ellipse fill="none" stroke="#52e87c" cx="634.649" cy="-364.066" rx="4.00002" ry="4.00002"/>
<polygon fill="#52e87c" stroke="#52e87c" points="728.82,-286.797 739.331,-283.673 732.606,-283.531 736.392,-280.265 736.392,-280.265 736.392,-280.265 732.606,-283.531 733.453,-276.858 728.82,-286.797 728.82,-286.797"/>
</g>
<!-- LevelTest -->
<g id="node6" class="node"><title>LevelTest</title>
<path fill="none" stroke="black" d="M584.5,-159C584.5,-159 697.5,-159 697.5,-159 703.5,-159 709.5,-165 709.5,-171 709.5,-171 709.5,-283 709.5,-283 709.5,-289 703.5,-295 697.5,-295 697.5,-295 584.5,-295 584.5,-295 578.5,-295 572.5,-289 572.5,-283 572.5,-283 572.5,-171 572.5,-171 572.5,-165 578.5,-159 584.5,-159"/>
<text text-anchor="middle" x="641" y="-279.8" font-family="Times,serif" font-size="14.00">LevelTest</text>
<polyline fill="none" stroke="black" points="572.5,-272 709.5,-272 "/>
<text text-anchor="start" x="580.5" y="-256.8" font-family="Times,serif" font-size="14.00">id :integer</text>
<text text-anchor="start" x="580.5" y="-241.8" font-family="Times,serif" font-size="14.00">level_id :integer</text>
<text text-anchor="start" x="580.5" y="-226.8" font-family="Times,serif" font-size="14.00">test_query :text</text>
<text text-anchor="start" x="580.5" y="-211.8" font-family="Times,serif" font-size="14.00">expected_output :text</text>
<text text-anchor="start" x="580.5" y="-196.8" font-family="Times,serif" font-size="14.00">error_message :string</text>
<text text-anchor="start" x="580.5" y="-181.8" font-family="Times,serif" font-size="14.00">created_at :datetime</text>
<text text-anchor="start" x="580.5" y="-166.8" font-family="Times,serif" font-size="14.00">updated_at :datetime</text>
</g>
<!-- Level&#45;&gt;LevelTest -->
<g id="edge4" class="edge"><title>Level&#45;&gt;LevelTest</title>
<path fill="none" stroke="#1b709b" d="M601.105,-324.746C603.874,-318.031 606.642,-311.318 609.357,-304.735"/>
<ellipse fill="none" stroke="#1b709b" cx="599.481" cy="-328.684" rx="4.00001" ry="4.00001"/>
<polygon fill="#1b709b" stroke="#1b709b" points="609.477,-304.444 617.449,-296.915 611.383,-299.821 613.289,-295.199 613.289,-295.199 613.289,-295.199 611.383,-299.821 609.129,-293.483 609.477,-304.444 609.477,-304.444"/>
</g>
<!-- UserDatabase -->
<g id="node9" class="node"><title>UserDatabase</title>
<path fill="none" stroke="black" d="M275,-166.5C275,-166.5 385,-166.5 385,-166.5 391,-166.5 397,-172.5 397,-178.5 397,-178.5 397,-275.5 397,-275.5 397,-281.5 391,-287.5 385,-287.5 385,-287.5 275,-287.5 275,-287.5 269,-287.5 263,-281.5 263,-275.5 263,-275.5 263,-178.5 263,-178.5 263,-172.5 269,-166.5 275,-166.5"/>
<text text-anchor="middle" x="330" y="-272.3" font-family="Times,serif" font-size="14.00">UserDatabase</text>
<polyline fill="none" stroke="black" points="263,-264.5 397,-264.5 "/>
<text text-anchor="start" x="271" y="-249.3" font-family="Times,serif" font-size="14.00">id :integer</text>
<text text-anchor="start" x="271" y="-234.3" font-family="Times,serif" font-size="14.00">name :string</text>
<text text-anchor="start" x="271" y="-219.3" font-family="Times,serif" font-size="14.00">user_id :integer</text>
<text text-anchor="start" x="271" y="-204.3" font-family="Times,serif" font-size="14.00">created_at :datetime</text>
<text text-anchor="start" x="271" y="-189.3" font-family="Times,serif" font-size="14.00">updated_at :datetime</text>
<text text-anchor="start" x="271" y="-174.3" font-family="Times,serif" font-size="14.00">level_id :integer</text>
</g>
<!-- Level&#45;&gt;UserDatabase -->
<g id="edge2" class="edge"><title>Level&#45;&gt;UserDatabase</title>
<path fill="none" stroke="#79afd5" d="M483.898,-360.516C458.845,-340.222 431.053,-317.37 406,-296 405.293,-295.397 404.583,-294.79 403.87,-294.179"/>
<ellipse fill="none" stroke="#79afd5" cx="487.095" cy="-363.102" rx="4.00002" ry="4.00002"/>
<polygon fill="#79afd5" stroke="#79afd5" points="403.728,-294.057 399.095,-284.117 399.942,-290.791 396.156,-287.525 396.156,-287.525 396.156,-287.525 399.942,-290.791 393.217,-290.932 403.728,-294.057 403.728,-294.057"/>
</g>
<!-- SchemaColumn -->
<g id="node7" class="node"><title>SchemaColumn</title>
<path fill="none" stroke="black" d="M775.5,-0.5C775.5,-0.5 908.5,-0.5 908.5,-0.5 914.5,-0.5 920.5,-6.5 920.5,-12.5 920.5,-12.5 920.5,-109.5 920.5,-109.5 920.5,-115.5 914.5,-121.5 908.5,-121.5 908.5,-121.5 775.5,-121.5 775.5,-121.5 769.5,-121.5 763.5,-115.5 763.5,-109.5 763.5,-109.5 763.5,-12.5 763.5,-12.5 763.5,-6.5 769.5,-0.5 775.5,-0.5"/>
<text text-anchor="middle" x="842" y="-106.3" font-family="Times,serif" font-size="14.00">SchemaColumn</text>
<polyline fill="none" stroke="black" points="763.5,-98.5 920.5,-98.5 "/>
<text text-anchor="start" x="771.5" y="-83.3" font-family="Times,serif" font-size="14.00">id :integer</text>
<text text-anchor="start" x="771.5" y="-68.3" font-family="Times,serif" font-size="14.00">level_schema_id :integer</text>
<text text-anchor="start" x="771.5" y="-53.3" font-family="Times,serif" font-size="14.00">column_name :string</text>
<text text-anchor="start" x="771.5" y="-38.3" font-family="Times,serif" font-size="14.00">column_type :string</text>
<text text-anchor="start" x="771.5" y="-23.3" font-family="Times,serif" font-size="14.00">created_at :datetime</text>
<text text-anchor="start" x="771.5" y="-8.3" font-family="Times,serif" font-size="14.00">updated_at :datetime</text>
</g>
<!-- LevelSchema&#45;&gt;SchemaColumn -->
<g id="edge8" class="edge"><title>LevelSchema&#45;&gt;SchemaColumn</title>
<path fill="none" stroke="#cb97db" d="M812.265,-165.756C815.463,-154.599 818.826,-142.862 822.095,-131.457"/>
<ellipse fill="none" stroke="#cb97db" cx="811.102" cy="-169.813" rx="4.00001" ry="4.00001"/>
<polygon fill="#cb97db" stroke="#cb97db" points="822.181,-131.155 829.262,-122.782 823.559,-126.349 824.936,-121.542 824.936,-121.542 824.936,-121.542 823.559,-126.349 820.61,-120.302 822.181,-131.155 822.181,-131.155"/>
</g>
<!-- User -->
<g id="node8" class="node"><title>User</title>
<path fill="none" stroke="black" d="M435.5,-708.5C435.5,-708.5 560.5,-708.5 560.5,-708.5 566.5,-708.5 572.5,-714.5 572.5,-720.5 572.5,-720.5 572.5,-817.5 572.5,-817.5 572.5,-823.5 566.5,-829.5 560.5,-829.5 560.5,-829.5 435.5,-829.5 435.5,-829.5 429.5,-829.5 423.5,-823.5 423.5,-817.5 423.5,-817.5 423.5,-720.5 423.5,-720.5 423.5,-714.5 429.5,-708.5 435.5,-708.5"/>
<text text-anchor="middle" x="498" y="-814.3" font-family="Times,serif" font-size="14.00">User</text>
<polyline fill="none" stroke="black" points="423.5,-806.5 572.5,-806.5 "/>
<text text-anchor="start" x="431.5" y="-791.3" font-family="Times,serif" font-size="14.00">id :integer</text>
<text text-anchor="start" x="431.5" y="-776.3" font-family="Times,serif" font-size="14.00">user_name :string</text>
<text text-anchor="start" x="431.5" y="-761.3" font-family="Times,serif" font-size="14.00">email :string</text>
<text text-anchor="start" x="431.5" y="-746.3" font-family="Times,serif" font-size="14.00">password_digest :string</text>
<text text-anchor="start" x="431.5" y="-731.3" font-family="Times,serif" font-size="14.00">created_at :datetime</text>
<text text-anchor="start" x="431.5" y="-716.3" font-family="Times,serif" font-size="14.00">updated_at :datetime</text>
</g>
<!-- User&#45;&gt;Level -->
<g id="edge13" class="edge"><title>User&#45;&gt;Level</title>
<path fill="none" stroke="#585471" d="M482.394,-698.244C475.472,-654.841 471.564,-598.289 485,-550 487.541,-540.867 490.943,-531.734 494.902,-522.793"/>
<polygon fill="#585471" stroke="#585471" points="482.399,-698.276 479.622,-708.884 483.229,-703.206 484.059,-708.137 484.059,-708.137 484.059,-708.137 483.229,-703.206 488.497,-707.39 482.399,-698.276 482.399,-698.276"/>
<polygon fill="#585471" stroke="#585471" points="494.985,-522.614 503.294,-515.457 497.101,-518.084 499.216,-513.553 499.216,-513.553 499.216,-513.553 497.101,-518.084 495.139,-511.649 494.985,-522.614 494.985,-522.614"/>
</g>
<!-- User&#45;&gt;UserDatabase -->
<g id="edge14" class="edge"><title>User&#45;&gt;UserDatabase</title>
<path fill="none" stroke="#364240" d="M477.035,-700.611C444.787,-596.959 383.367,-399.536 351.062,-295.698"/>
<ellipse fill="none" stroke="#364240" cx="478.272" cy="-704.587" rx="4.00001" ry="4.00001"/>
<ellipse fill="#364240" stroke="#364240" cx="349.785" cy="-291.596" rx="4.00001" ry="4.00001"/>
</g>
<!-- UserLevel -->
<g id="node10" class="node"><title>UserLevel</title>
<path fill="none" stroke="black" d="M506,-550.5C506,-550.5 616,-550.5 616,-550.5 622,-550.5 628,-556.5 628,-562.5 628,-562.5 628,-659.5 628,-659.5 628,-665.5 622,-671.5 616,-671.5 616,-671.5 506,-671.5 506,-671.5 500,-671.5 494,-665.5 494,-659.5 494,-659.5 494,-562.5 494,-562.5 494,-556.5 500,-550.5 506,-550.5"/>
<text text-anchor="middle" x="561" y="-656.3" font-family="Times,serif" font-size="14.00">UserLevel</text>
<polyline fill="none" stroke="black" points="494,-648.5 628,-648.5 "/>
<text text-anchor="start" x="502" y="-633.3" font-family="Times,serif" font-size="14.00">id :integer</text>
<text text-anchor="start" x="502" y="-618.3" font-family="Times,serif" font-size="14.00">user_id :integer</text>
<text text-anchor="start" x="502" y="-603.3" font-family="Times,serif" font-size="14.00">level_id :integer</text>
<text text-anchor="start" x="502" y="-588.3" font-family="Times,serif" font-size="14.00">completed :boolean</text>
<text text-anchor="start" x="502" y="-573.3" font-family="Times,serif" font-size="14.00">created_at :datetime</text>
<text text-anchor="start" x="502" y="-558.3" font-family="Times,serif" font-size="14.00">updated_at :datetime</text>
</g>
<!-- User&#45;&gt;UserLevel -->
<g id="edge12" class="edge"><title>User&#45;&gt;UserLevel</title>
<path fill="none" stroke="#5948de" d="M525.257,-700.506C527.857,-694.068 530.496,-687.533 533.102,-681.081"/>
<ellipse fill="none" stroke="#5948de" cx="523.675" cy="-704.424" rx="4.00001" ry="4.00001"/>
<polygon fill="#5948de" stroke="#5948de" points="533.143,-680.98 541.06,-673.392 535.015,-676.344 536.887,-671.707 536.887,-671.707 536.887,-671.707 535.015,-676.344 532.715,-670.022 533.143,-680.98 533.143,-680.98"/>
</g>
<!-- UserLevel&#45;&gt;Level -->
<g id="edge17" class="edge"><title>UserLevel&#45;&gt;Level</title>
<path fill="none" stroke="#37062d" d="M561,-542.322C561,-535.645 561,-528.78 561,-521.879"/>
<ellipse fill="none" stroke="#37062d" cx="561" cy="-546.381" rx="4" ry="4"/>
<ellipse fill="#37062d" stroke="#37062d" cx="561" cy="-517.77" rx="4" ry="4"/>
</g>
<!-- Object -->
<g id="node11" class="node"><title>Object</title>
<ellipse fill="none" stroke="black" cx="261" cy="-905" rx="35.1455" ry="18"/>
<text text-anchor="middle" x="261" y="-901.3" font-family="Times,serif" font-size="14.00">Object</text>
</g>
<!-- Object&#45;&gt;GameResponse -->
<g id="edge1" class="edge"><title>Object&#45;&gt;GameResponse</title>
<path fill="none" stroke="black" d="M261,-886.756C261,-862.582 261,-818.608 261,-792.072"/>
</g>
<!-- ActiveRecord::Base -->
<g id="node12" class="node"><title>ActiveRecord::Base</title>
<ellipse fill="none" stroke="black" cx="632" cy="-905" rx="83.2649" ry="18"/>
<text text-anchor="middle" x="632" y="-901.3" font-family="Times,serif" font-size="14.00">ActiveRecord::Base</text>
</g>
<!-- ActiveRecord::Base&#45;&gt;Level -->
<g id="edge6" class="edge"><title>ActiveRecord::Base&#45;&gt;Level</title>
<path fill="none" stroke="black" d="M635.56,-886.982C645.702,-835.167 671.847,-675.24 637,-550 633.576,-537.694 628.59,-525.389 622.784,-513.553"/>
</g>
<!-- ActiveRecord::Base&#45;&gt;LevelPage -->
<g id="edge7" class="edge"><title>ActiveRecord::Base&#45;&gt;LevelPage</title>
<path fill="none" stroke="black" d="M552.726,-899.386C504.116,-891.972 445.371,-873.778 414,-830 295.08,-664.048 397.172,-403.9 453.598,-287.625"/>
</g>
<!-- ActiveRecord::Base&#45;&gt;LevelSchema -->
<g id="edge9" class="edge"><title>ActiveRecord::Base&#45;&gt;LevelSchema</title>
<path fill="none" stroke="black" d="M645.381,-887.069C656.08,-872.686 670.629,-851.075 679,-830 755.914,-636.367 783.028,-386.875 791.53,-280.163"/>
</g>
<!-- ActiveRecord::Base&#45;&gt;LevelTest -->
<g id="edge10" class="edge"><title>ActiveRecord::Base&#45;&gt;LevelTest</title>
<path fill="none" stroke="black" d="M641.426,-886.981C648.947,-872.369 658.883,-850.484 663,-830 673.685,-776.841 663.686,-762.218 663,-708 662.111,-637.761 661.85,-620.187 659,-550 655.423,-461.888 649.434,-360.314 645.355,-295.194"/>
</g>
<!-- ActiveRecord::Base&#45;&gt;SchemaColumn -->
<g id="edge11" class="edge"><title>ActiveRecord::Base&#45;&gt;SchemaColumn</title>
<path fill="none" stroke="black" d="M662.609,-888.186C730.951,-850.435 890,-747.972 890,-612 890,-612 890,-612 890,-422 890,-304.363 892.362,-273.681 871,-158 868.803,-146.101 865.661,-133.587 862.25,-121.669"/>
</g>
<!-- ActiveRecord::Base&#45;&gt;User -->
<g id="edge15" class="edge"><title>ActiveRecord::Base&#45;&gt;User</title>
<path fill="none" stroke="black" d="M615.3,-887.3C600.707,-872.707 578.612,-850.612 557.518,-829.518"/>
</g>
<!-- ActiveRecord::Base&#45;&gt;UserDatabase -->
<g id="edge16" class="edge"><title>ActiveRecord::Base&#45;&gt;UserDatabase</title>
<path fill="none" stroke="black" d="M563.831,-894.581C492.157,-883.154 386.309,-861.436 361,-830 294.961,-747.974 313.595,-422.876 324.586,-287.572"/>
</g>
<!-- ActiveRecord::Base&#45;&gt;UserLevel -->
<g id="edge18" class="edge"><title>ActiveRecord::Base&#45;&gt;UserLevel</title>
<path fill="none" stroke="black" d="M627.771,-886.609C617.696,-845.171 591.89,-739.041 575.47,-671.511"/>
</g>
</g>
</svg>
