<?xml version="1.0" encoding="UTF-8" standalone="no"?>
<!DOCTYPE svg PUBLIC "-//W3C//DTD SVG 1.1//EN"
 "http://www.w3.org/Graphics/SVG/1.1/DTD/svg11.dtd">
<!-- Generated by graphviz version 2.36.0 (20140111.2315)
 -->
<!-- Title: models_diagram Pages: 1 -->
<svg width="825pt" height="446pt"
 viewBox="0.00 0.00 825.00 446.00" xmlns="http://www.w3.org/2000/svg" xmlns:xlink="http://www.w3.org/1999/xlink">
<g id="graph0" class="graph" transform="scale(1 1) rotate(0) translate(4 442)">
<title>models_diagram</title>
<polygon fill="white" stroke="none" points="-4,4 -4,-442 821,-442 821,4 -4,4"/>
<!-- _diagram_info -->
<g id="node1" class="node"><title>_diagram_info</title>
<text text-anchor="start" x="8" y="-423.6" font-family="Times,serif" font-size="13.00">Models diagram</text>
<text text-anchor="start" x="8" y="-409.6" font-family="Times,serif" font-size="13.00">Date: Apr 15 2014 &#45; 13:52</text>
<text text-anchor="start" x="8" y="-395.6" font-family="Times,serif" font-size="13.00">Migration version: 20140414214030</text>
<text text-anchor="start" x="8" y="-381.6" font-family="Times,serif" font-size="13.00">Generated by RailRoady 1.1.1</text>
<text text-anchor="start" x="8" y="-367.6" font-family="Times,serif" font-size="13.00">http://railroady.prestonlee.com</text>
</g>
<!-- GameResponse -->
<g id="node2" class="node"><title>GameResponse</title>
<polygon fill="none" stroke="black" points="313,-324 209,-324 209,-288 313,-288 313,-324"/>
<text text-anchor="middle" x="261" y="-302.3" font-family="Times,serif" font-size="14.00">GameResponse</text>
</g>
<!-- Level -->
<g id="node3" class="node"><title>Level</title>
<ellipse fill="none" stroke="black" cx="535" cy="-162" rx="31.2965" ry="18"/>
<text text-anchor="middle" x="535" y="-158.3" font-family="Times,serif" font-size="14.00">Level</text>
</g>
<!-- LevelPage -->
<g id="node4" class="node"><title>LevelPage</title>
<ellipse fill="none" stroke="black" cx="466" cy="-90" rx="49.0941" ry="18"/>
<text text-anchor="middle" x="466" y="-86.3" font-family="Times,serif" font-size="14.00">LevelPage</text>
</g>
<!-- Level&#45;&gt;LevelPage -->
<g id="edge3" class="edge"><title>Level&#45;&gt;LevelPage</title>
<path fill="none" stroke="#64a76e" d="M514.189,-139.888C506.255,-131.839 497.168,-122.62 489.039,-114.373"/>
<ellipse fill="none" stroke="#64a76e" cx="517.22" cy="-142.962" rx="4.00002" ry="4.00002"/>
<polygon fill="#64a76e" stroke="#64a76e" points="488.923,-114.255 485.108,-103.975 485.413,-110.694 481.903,-107.134 481.903,-107.134 481.903,-107.134 485.413,-110.694 478.698,-110.293 488.923,-114.255 488.923,-114.255"/>
</g>
<!-- LevelSchema -->
<g id="node5" class="node"><title>LevelSchema</title>
<ellipse fill="none" stroke="black" cx="705" cy="-90" rx="60.1672" ry="18"/>
<text text-anchor="middle" x="705" y="-86.3" font-family="Times,serif" font-size="14.00">LevelSchema</text>
</g>
<!-- Level&#45;&gt;LevelSchema -->
<g id="edge5" class="edge"><title>Level&#45;&gt;LevelSchema</title>
<path fill="none" stroke="#77b10b" d="M567.328,-147.688C594.034,-136.692 632.188,-120.981 661.56,-108.887"/>
<ellipse fill="none" stroke="#77b10b" cx="563.418" cy="-149.298" rx="4.00001" ry="4.00001"/>
<polygon fill="#77b10b" stroke="#77b10b" points="661.909,-108.744 672.869,-109.097 666.532,-106.84 671.155,-104.936 671.155,-104.936 671.155,-104.936 666.532,-106.84 669.442,-100.775 661.909,-108.744 661.909,-108.744"/>
</g>
<!-- LevelTest -->
<g id="node6" class="node"><title>LevelTest</title>
<ellipse fill="none" stroke="black" cx="580" cy="-90" rx="46.1964" ry="18"/>
<text text-anchor="middle" x="580" y="-86.3" font-family="Times,serif" font-size="14.00">LevelTest</text>
</g>
<!-- Level&#45;&gt;LevelTest -->
<g id="edge4" class="edge"><title>Level&#45;&gt;LevelTest</title>
<path fill="none" stroke="#6ce495" d="M549.867,-137.874C554.335,-130.924 559.258,-123.265 563.807,-116.188"/>
<ellipse fill="none" stroke="#6ce495" cx="547.6" cy="-141.4" rx="4.00002" ry="4.00002"/>
<polygon fill="#6ce495" stroke="#6ce495" points="563.899,-116.045 573.092,-110.067 566.603,-111.839 569.307,-107.633 569.307,-107.633 569.307,-107.633 566.603,-111.839 565.522,-105.2 563.899,-116.045 563.899,-116.045"/>
</g>
<!-- UserDatabase -->
<g id="node9" class="node"><title>UserDatabase</title>
<ellipse fill="none" stroke="black" cx="338" cy="-90" rx="61.1419" ry="18"/>
<text text-anchor="middle" x="338" y="-86.3" font-family="Times,serif" font-size="14.00">UserDatabase</text>
</g>
<!-- Level&#45;&gt;UserDatabase -->
<g id="edge2" class="edge"><title>Level&#45;&gt;UserDatabase</title>
<path fill="none" stroke="#b66fdf" d="M501.678,-149.16C469.755,-137.816 421.258,-120.584 385.333,-107.819"/>
<ellipse fill="none" stroke="#b66fdf" cx="505.477" cy="-150.509" rx="4.00001" ry="4.00001"/>
<polygon fill="#b66fdf" stroke="#b66fdf" points="384.981,-107.694 377.065,-100.105 380.269,-106.02 375.558,-104.345 375.558,-104.345 375.558,-104.345 380.269,-106.02 374.051,-108.586 384.981,-107.694 384.981,-107.694"/>
</g>
<!-- SchemaColumn -->
<g id="node7" class="node"><title>SchemaColumn</title>
<ellipse fill="none" stroke="black" cx="749" cy="-18" rx="68.3417" ry="18"/>
<text text-anchor="middle" x="749" y="-14.3" font-family="Times,serif" font-size="14.00">SchemaColumn</text>
</g>
<!-- LevelSchema&#45;&gt;SchemaColumn -->
<g id="edge8" class="edge"><title>LevelSchema&#45;&gt;SchemaColumn</title>
<path fill="none" stroke="#095e56" d="M719.91,-65.28C724.095,-58.6217 728.664,-51.3535 732.914,-44.5915"/>
<ellipse fill="none" stroke="#095e56" cx="717.78" cy="-68.6684" rx="4.00002" ry="4.00002"/>
<polygon fill="#095e56" stroke="#095e56" points="733.125,-44.2554 742.257,-38.1838 735.786,-40.0222 738.447,-35.789 738.447,-35.789 738.447,-35.789 735.786,-40.0222 734.637,-33.3942 733.125,-44.2554 733.125,-44.2554"/>
</g>
<!-- User -->
<g id="node8" class="node"><title>User</title>
<ellipse fill="none" stroke="black" cx="488" cy="-306" rx="27.4223" ry="18"/>
<text text-anchor="middle" x="488" y="-302.3" font-family="Times,serif" font-size="14.00">User</text>
</g>
<!-- User&#45;&gt;Level -->
<g id="edge13" class="edge"><title>User&#45;&gt;Level</title>
<path fill="none" stroke="#bb50dc" d="M477.786,-278.794C472.288,-260.485 468.245,-235.861 477,-216 483.11,-202.14 494.833,-190.331 506.149,-181.403"/>
<polygon fill="#bb50dc" stroke="#bb50dc" points="477.859,-279.013 476.741,-289.922 479.435,-283.758 481.012,-288.503 481.012,-288.503 481.012,-288.503 479.435,-283.758 485.282,-287.084 477.859,-279.013 477.859,-279.013"/>
<polygon fill="#bb50dc" stroke="#bb50dc" points="506.193,-181.371 516.908,-179.04 510.212,-178.396 514.231,-175.422 514.231,-175.422 514.231,-175.422 510.212,-178.396 511.555,-171.805 506.193,-181.371 506.193,-181.371"/>
</g>
<!-- User&#45;&gt;UserDatabase -->
<g id="edge14" class="edge"><title>User&#45;&gt;UserDatabase</title>
<path fill="none" stroke="#bdacd1" d="M472.272,-282.561C443.752,-241.872 383.764,-156.289 354.609,-114.696"/>
<ellipse fill="none" stroke="#bdacd1" cx="474.674" cy="-285.989" rx="4.00002" ry="4.00002"/>
<ellipse fill="#bdacd1" stroke="#bdacd1" cx="352.167" cy="-111.212" rx="4.00002" ry="4.00002"/>
</g>
<!-- UserLevel -->
<g id="node10" class="node"><title>UserLevel</title>
<ellipse fill="none" stroke="black" cx="535" cy="-234" rx="48.6179" ry="18"/>
<text text-anchor="middle" x="535" y="-230.3" font-family="Times,serif" font-size="14.00">UserLevel</text>
</g>
<!-- User&#45;&gt;UserLevel -->
<g id="edge12" class="edge"><title>User&#45;&gt;UserLevel</title>
<path fill="none" stroke="#b041b5" d="M503.295,-282.221C507.972,-275.255 513.144,-267.551 517.931,-260.422"/>
<ellipse fill="none" stroke="#b041b5" cx="500.895" cy="-285.795" rx="4.00002" ry="4.00002"/>
<polygon fill="#b041b5" stroke="#b041b5" points="518.147,-260.1 527.458,-254.306 520.935,-255.948 523.722,-251.797 523.722,-251.797 523.722,-251.797 520.935,-255.948 519.986,-249.289 518.147,-260.1 518.147,-260.1"/>
</g>
<!-- UserLevel&#45;&gt;Level -->
<g id="edge17" class="edge"><title>UserLevel&#45;&gt;Level</title>
<path fill="none" stroke="#937ef9" d="M535,-207.64C535,-201.348 535,-194.605 535,-188.316"/>
<ellipse fill="none" stroke="#937ef9" cx="535" cy="-211.697" rx="4" ry="4"/>
<ellipse fill="#937ef9" stroke="#937ef9" cx="535" cy="-184.104" rx="4" ry="4"/>
</g>
<!-- Object -->
<g id="node11" class="node"><title>Object</title>
<ellipse fill="none" stroke="black" cx="261" cy="-399" rx="35.1455" ry="18"/>
<text text-anchor="middle" x="261" y="-395.3" font-family="Times,serif" font-size="14.00">Object</text>
</g>
<!-- Object&#45;&gt;GameResponse -->
<g id="edge1" class="edge"><title>Object&#45;&gt;GameResponse</title>
<path fill="none" stroke="black" d="M261,-380.884C261,-364.614 261,-340.284 261,-324.04"/>
</g>
<!-- ActiveRecord::Base -->
<g id="node12" class="node"><title>ActiveRecord::Base</title>
<ellipse fill="none" stroke="black" cx="586" cy="-399" rx="83.2649" ry="18"/>
<text text-anchor="middle" x="586" y="-395.3" font-family="Times,serif" font-size="14.00">ActiveRecord::Base</text>
</g>
<!-- ActiveRecord::Base&#45;&gt;Level -->
<g id="edge6" class="edge"><title>ActiveRecord::Base&#45;&gt;Level</title>
<path fill="none" stroke="black" d="M591.267,-380.781C600.502,-347.365 616.433,-272.082 592,-216 584.606,-199.028 568.802,-185.043 555.706,-175.708"/>
</g>
<!-- ActiveRecord::Base&#45;&gt;LevelPage -->
<g id="edge7" class="edge"><title>ActiveRecord::Base&#45;&gt;LevelPage</title>
<path fill="none" stroke="black" d="M535.677,-384.596C505.383,-373.647 469.25,-354.816 451,-324 409.172,-253.373 442.903,-148.691 458.828,-108.021"/>
</g>
<!-- ActiveRecord::Base&#45;&gt;LevelSchema -->
<g id="edge9" class="edge"><title>ActiveRecord::Base&#45;&gt;LevelSchema</title>
<path fill="none" stroke="black" d="M598.577,-381.105C608.935,-366.568 623.426,-344.724 633,-324 668.602,-246.937 692.602,-147.662 701.335,-108.239"/>
</g>
<!-- ActiveRecord::Base&#45;&gt;LevelTest -->
<g id="edge10" class="edge"><title>ActiveRecord::Base&#45;&gt;LevelTest</title>
<path fill="none" stroke="black" d="M595.426,-380.981C602.947,-366.369 612.883,-344.484 617,-324 633.142,-243.69 601.479,-146.652 586.854,-108.041"/>
</g>
<!-- ActiveRecord::Base&#45;&gt;SchemaColumn -->
<g id="edge11" class="edge"><title>ActiveRecord::Base&#45;&gt;SchemaColumn</title>
<path fill="none" stroke="black" d="M633.231,-384.053C694.325,-362.758 793,-315.849 793,-235 793,-235 793,-235 793,-161 793,-120.553 786.936,-110.323 774,-72 769.835,-59.6617 763.585,-46.4117 758.376,-36.2462"/>
</g>
<!-- ActiveRecord::Base&#45;&gt;User -->
<g id="edge15" class="edge"><title>ActiveRecord::Base&#45;&gt;User</title>
<path fill="none" stroke="black" d="M568.025,-381.309C549.459,-364.069 520.797,-337.454 503.286,-321.194"/>
</g>
<!-- ActiveRecord::Base&#45;&gt;UserDatabase -->
<g id="edge16" class="edge"><title>ActiveRecord::Base&#45;&gt;UserDatabase</title>
<path fill="none" stroke="black" d="M536.567,-384.374C503.456,-373.013 460.967,-353.797 433,-324 372.162,-259.181 348.016,-150.181 340.671,-108.2"/>
</g>
<!-- ActiveRecord::Base&#45;&gt;UserLevel -->
<g id="edge18" class="edge"><title>ActiveRecord::Base&#45;&gt;UserLevel</title>
<path fill="none" stroke="black" d="M580.638,-380.864C570.818,-349.477 550.057,-283.122 540.29,-251.906"/>
</g>
</g>
</svg>
