<?xml version="1.0" encoding="UTF-8" standalone="no"?>
<!DOCTYPE svg PUBLIC "-//W3C//DTD SVG 1.1//EN"
 "http://www.w3.org/Graphics/SVG/1.1/DTD/svg11.dtd">
<!-- Generated by graphviz version 2.36.0 (20140111.2315)
 -->
<!-- Title: models_diagram Pages: 1 -->
<svg width="395pt" height="370pt"
 viewBox="0.00 0.00 395.00 370.00" xmlns="http://www.w3.org/2000/svg" xmlns:xlink="http://www.w3.org/1999/xlink">
<g id="graph0" class="graph" transform="scale(1 1) rotate(0) translate(4 366)">
<title>models_diagram</title>
<polygon fill="white" stroke="none" points="-4,4 -4,-366 391,-366 391,4 -4,4"/>
<!-- _diagram_info -->
<g id="node1" class="node"><title>_diagram_info</title>
<text text-anchor="start" x="7.31226" y="-347.1" font-family="Times,serif" font-size="13.00">Models diagram</text>
<text text-anchor="start" x="7.31226" y="-334.1" font-family="Times,serif" font-size="13.00">Date: Apr 11 2014 &#45; 11:08</text>
<text text-anchor="start" x="7.31226" y="-321.1" font-family="Times,serif" font-size="13.00">Migration version: 20140410220825</text>
<text text-anchor="start" x="7.31226" y="-308.1" font-family="Times,serif" font-size="13.00">Generated by RailRoady 1.1.1</text>
<text text-anchor="start" x="7.31226" y="-295.1" font-family="Times,serif" font-size="13.00">http://railroady.prestonlee.com</text>
</g>
<!-- Level -->
<g id="node2" class="node"><title>Level</title>
<ellipse fill="none" stroke="black" cx="268" cy="-90" rx="30.3576" ry="18"/>
<text text-anchor="middle" x="268" y="-85.8" font-family="Times,serif" font-size="14.00">Level</text>
</g>
<!-- UserDatabase -->
<g id="node4" class="node"><title>UserDatabase</title>
<ellipse fill="none" stroke="black" cx="268" cy="-18" rx="59.3187" ry="18"/>
<text text-anchor="middle" x="268" y="-13.8" font-family="Times,serif" font-size="14.00">UserDatabase</text>
</g>
<!-- Level&#45;&gt;UserDatabase -->
<g id="edge1" class="edge"><title>Level&#45;&gt;UserDatabase</title>
<path fill="none" stroke="#8632e1" d="M268,-63.6398C268,-58.0629 268,-52.1319 268,-46.4761"/>
<ellipse fill="none" stroke="#8632e1" cx="268" cy="-67.6966" rx="4" ry="4"/>
<polygon fill="#8632e1" stroke="#8632e1" points="268,-46.1043 272.5,-36.1043 268,-41.1043 268,-36.1043 268,-36.1043 268,-36.1043 268,-41.1043 263.5,-36.1044 268,-46.1043 268,-46.1043"/>
</g>
<!-- User -->
<g id="node3" class="node"><title>User</title>
<ellipse fill="none" stroke="black" cx="212" cy="-234" rx="27" ry="18"/>
<text text-anchor="middle" x="212" y="-229.8" font-family="Times,serif" font-size="14.00">User</text>
</g>
<!-- User&#45;&gt;Level -->
<g id="edge4" class="edge"><title>User&#45;&gt;Level</title>
<path fill="none" stroke="#fbc473" d="M206.623,-206.16C204.228,-187.893 203.574,-163.576 212,-144 217.82,-130.479 228.973,-118.794 239.804,-109.863"/>
<polygon fill="#fbc473" stroke="#fbc473" points="206.638,-206.254 203.733,-216.828 207.408,-211.194 208.179,-216.135 208.179,-216.135 208.179,-216.135 207.408,-211.194 212.625,-215.441 206.638,-206.254 206.638,-206.254"/>
<polygon fill="#fbc473" stroke="#fbc473" points="240.016,-109.699 250.681,-107.147 243.973,-106.643 247.93,-103.586 247.93,-103.586 247.93,-103.586 243.973,-106.643 245.179,-100.025 240.016,-109.699 240.016,-109.699"/>
</g>
<!-- User&#45;&gt;UserDatabase -->
<g id="edge5" class="edge"><title>User&#45;&gt;UserDatabase</title>
<path fill="none" stroke="#968786" d="M204.803,-207.965C200.652,-190.059 196.979,-165.435 201,-144 207.331,-110.254 212.46,-102.088 229,-72 234.613,-61.7887 241.945,-51.3006 248.734,-42.3774"/>
<ellipse fill="none" stroke="#968786" cx="205.88" cy="-212.291" rx="4.00001" ry="4.00001"/>
<ellipse fill="#968786" stroke="#968786" cx="251.327" cy="-39.0462" rx="4.00002" ry="4.00002"/>
</g>
<!-- UserLevel -->
<g id="node5" class="node"><title>UserLevel</title>
<ellipse fill="none" stroke="black" cx="268" cy="-162" rx="46.4046" ry="18"/>
<text text-anchor="middle" x="268" y="-157.8" font-family="Times,serif" font-size="14.00">UserLevel</text>
</g>
<!-- User&#45;&gt;UserLevel -->
<g id="edge3" class="edge"><title>User&#45;&gt;UserLevel</title>
<path fill="none" stroke="#8419f3" d="M229.286,-211.392C235.297,-203.879 242.083,-195.396 248.276,-187.655"/>
<ellipse fill="none" stroke="#8419f3" cx="226.65" cy="-214.688" rx="4.00002" ry="4.00002"/>
<polygon fill="#8419f3" stroke="#8419f3" points="248.451,-187.437 258.212,-182.439 251.574,-183.532 254.698,-179.628 254.698,-179.628 254.698,-179.628 251.574,-183.532 251.184,-176.817 248.451,-187.437 248.451,-187.437"/>
</g>
<!-- UserLevel&#45;&gt;Level -->
<g id="edge8" class="edge"><title>UserLevel&#45;&gt;Level</title>
<path fill="none" stroke="#49a249" d="M268,-135.64C268,-129.348 268,-122.605 268,-116.316"/>
<ellipse fill="none" stroke="#49a249" cx="268" cy="-139.697" rx="4" ry="4"/>
<ellipse fill="#49a249" stroke="#49a249" cx="268" cy="-112.104" rx="4" ry="4"/>
</g>
<!-- ActiveRecord::Base -->
<g id="node6" class="node"><title>ActiveRecord::Base</title>
<ellipse fill="none" stroke="black" cx="306" cy="-325" rx="80.9821" ry="18"/>
<text text-anchor="middle" x="306" y="-320.8" font-family="Times,serif" font-size="14.00">ActiveRecord::Base</text>
</g>
<!-- ActiveRecord::Base&#45;&gt;Level -->
<g id="edge2" class="edge"><title>ActiveRecord::Base&#45;&gt;Level</title>
<path fill="none" stroke="black" d="M312.794,-307.047C324.89,-274.132 346.762,-199.897 323,-144 315.841,-127.159 300.418,-113.074 287.721,-103.667"/>
</g>
<!-- ActiveRecord::Base&#45;&gt;User -->
<g id="edge6" class="edge"><title>ActiveRecord::Base&#45;&gt;User</title>
<path fill="none" stroke="black" d="M288.319,-307.26C270.663,-290.542 243.814,-265.122 227.119,-249.315"/>
</g>
<!-- ActiveRecord::Base&#45;&gt;UserDatabase -->
<g id="edge7" class="edge"><title>ActiveRecord::Base&#45;&gt;UserDatabase</title>
<path fill="none" stroke="black" d="M318.084,-306.925C327.216,-292.914 339.005,-272.168 344,-252 348.143,-235.275 344.627,-158.729 341,-144 330.486,-101.296 300.234,-58.5638 282.142,-35.7976"/>
</g>
<!-- ActiveRecord::Base&#45;&gt;UserLevel -->
<g id="edge9" class="edge"><title>ActiveRecord::Base&#45;&gt;UserLevel</title>
<path fill="none" stroke="black" d="M301.933,-306.77C294.619,-275.782 279.33,-211.004 272.037,-180.106"/>
</g>
</g>
</svg>
