<?xml version="1.0" encoding="UTF-8" standalone="no"?>
<!DOCTYPE svg PUBLIC "-//W3C//DTD SVG 1.1//EN"
 "http://www.w3.org/Graphics/SVG/1.1/DTD/svg11.dtd">
<!-- Generated by graphviz version 2.36.0 (20140111.2315)
 -->
<!-- Title: models_diagram Pages: 1 -->
<svg width="1120pt" height="802pt"
 viewBox="0.00 0.00 1120.00 802.00" xmlns="http://www.w3.org/2000/svg" xmlns:xlink="http://www.w3.org/1999/xlink">
<g id="graph0" class="graph" transform="scale(1 1) rotate(0) translate(4 798)">
<title>models_diagram</title>
<polygon fill="white" stroke="none" points="-4,4 -4,-798 1116,-798 1116,4 -4,4"/>
<!-- _diagram_info -->
<g id="node1" class="node"><title>_diagram_info</title>
<text text-anchor="start" x="7.31226" y="-779.1" font-family="Times,serif" font-size="13.00">Models diagram</text>
<text text-anchor="start" x="7.31226" y="-766.1" font-family="Times,serif" font-size="13.00">Date: Apr 22 2014 &#45; 16:26</text>
<text text-anchor="start" x="7.31226" y="-753.1" font-family="Times,serif" font-size="13.00">Migration version: 20140419215128</text>
<text text-anchor="start" x="7.31226" y="-740.1" font-family="Times,serif" font-size="13.00">Generated by RailRoady 1.1.1</text>
<text text-anchor="start" x="7.31226" y="-727.1" font-family="Times,serif" font-size="13.00">http://railroady.prestonlee.com</text>
</g>
<!-- GameResponse -->
<g id="node2" class="node"><title>GameResponse</title>
<polygon fill="none" stroke="black" points="206.455,-590 206.455,-634 309.545,-634 309.545,-590 206.455,-590"/>
<text text-anchor="middle" x="258" y="-618.8" font-family="Times,serif" font-size="14.00">GameResponse</text>
<polyline fill="none" stroke="black" points="206.455,-612 309.545,-612 "/>
<text text-anchor="middle" x="258" y="-596.8" font-family="Times,serif" font-size="14.00"> </text>
</g>
<!-- Level -->
<g id="node3" class="node"><title>Level</title>
<path fill="none" stroke="black" d="M683.605,-319C683.605,-319 800.395,-319 800.395,-319 806.395,-319 812.395,-325 812.395,-331 812.395,-331 812.395,-491 812.395,-491 812.395,-497 806.395,-503 800.395,-503 800.395,-503 683.605,-503 683.605,-503 677.605,-503 671.605,-497 671.605,-491 671.605,-491 671.605,-331 671.605,-331 671.605,-325 677.605,-319 683.605,-319"/>
<text text-anchor="middle" x="742" y="-487.8" font-family="Times,serif" font-size="14.00">Level</text>
<polyline fill="none" stroke="black" points="671.605,-481 812.395,-481 "/>
<text text-anchor="start" x="679.605" y="-465.8" font-family="Times,serif" font-size="14.00">id :integer</text>
<text text-anchor="start" x="679.605" y="-451.8" font-family="Times,serif" font-size="14.00">title :string</text>
<text text-anchor="start" x="679.605" y="-437.8" font-family="Times,serif" font-size="14.00">prompt :text</text>
<text text-anchor="start" x="679.605" y="-423.8" font-family="Times,serif" font-size="14.00">stage_number :integer</text>
<text text-anchor="start" x="679.605" y="-409.8" font-family="Times,serif" font-size="14.00">created_at :datetime</text>
<text text-anchor="start" x="679.605" y="-395.8" font-family="Times,serif" font-size="14.00">updated_at :datetime</text>
<text text-anchor="start" x="679.605" y="-381.8" font-family="Times,serif" font-size="14.00">database_path :string</text>
<text text-anchor="start" x="679.605" y="-367.8" font-family="Times,serif" font-size="14.00">dump :text</text>
<text text-anchor="start" x="679.605" y="-353.8" font-family="Times,serif" font-size="14.00">answer :text</text>
<text text-anchor="start" x="679.605" y="-339.8" font-family="Times,serif" font-size="14.00">level_type :string</text>
<text text-anchor="start" x="679.605" y="-325.8" font-family="Times,serif" font-size="14.00">default_text :text</text>
</g>
<!-- LevelPage -->
<g id="node4" class="node"><title>LevelPage</title>
<path fill="none" stroke="black" d="M377.774,-160C377.774,-160 492.226,-160 492.226,-160 498.226,-160 504.226,-166 504.226,-172 504.226,-172 504.226,-262 504.226,-262 504.226,-268 498.226,-274 492.226,-274 492.226,-274 377.774,-274 377.774,-274 371.774,-274 365.774,-268 365.774,-262 365.774,-262 365.774,-172 365.774,-172 365.774,-166 371.774,-160 377.774,-160"/>
<text text-anchor="middle" x="435" y="-258.8" font-family="Times,serif" font-size="14.00">LevelPage</text>
<polyline fill="none" stroke="black" points="365.774,-252 504.226,-252 "/>
<text text-anchor="start" x="373.774" y="-236.8" font-family="Times,serif" font-size="14.00">id :integer</text>
<text text-anchor="start" x="373.774" y="-222.8" font-family="Times,serif" font-size="14.00">level_id :integer</text>
<text text-anchor="start" x="373.774" y="-208.8" font-family="Times,serif" font-size="14.00">page_number :integer</text>
<text text-anchor="start" x="373.774" y="-194.8" font-family="Times,serif" font-size="14.00">content :text</text>
<text text-anchor="start" x="373.774" y="-180.8" font-family="Times,serif" font-size="14.00">created_at :datetime</text>
<text text-anchor="start" x="373.774" y="-166.8" font-family="Times,serif" font-size="14.00">updated_at :datetime</text>
</g>
<!-- Level&#45;&gt;LevelPage -->
<g id="edge3" class="edge"><title>Level&#45;&gt;LevelPage</title>
<path fill="none" stroke="#d64a85" d="M664.282,-370.976C618.973,-347.151 561.402,-315 513,-282 512.095,-281.383 511.189,-280.759 510.28,-280.126"/>
<ellipse fill="none" stroke="#d64a85" cx="667.901" cy="-372.871" rx="4.00002" ry="4.00002"/>
<polygon fill="#d64a85" stroke="#d64a85" points="510.211,-280.077 504.692,-270.601 506.143,-277.17 502.076,-274.262 502.076,-274.262 502.076,-274.262 506.143,-277.17 499.459,-277.923 510.211,-280.077 510.211,-280.077"/>
</g>
<!-- LevelSchema -->
<g id="node5" class="node"><title>LevelSchema</title>
<path fill="none" stroke="black" d="M534.495,-167C534.495,-167 643.505,-167 643.505,-167 649.505,-167 655.505,-173 655.505,-179 655.505,-179 655.505,-255 655.505,-255 655.505,-261 649.505,-267 643.505,-267 643.505,-267 534.495,-267 534.495,-267 528.495,-267 522.495,-261 522.495,-255 522.495,-255 522.495,-179 522.495,-179 522.495,-173 528.495,-167 534.495,-167"/>
<text text-anchor="middle" x="589" y="-251.8" font-family="Times,serif" font-size="14.00">LevelSchema</text>
<polyline fill="none" stroke="black" points="522.495,-245 655.505,-245 "/>
<text text-anchor="start" x="530.495" y="-229.8" font-family="Times,serif" font-size="14.00">id :integer</text>
<text text-anchor="start" x="530.495" y="-215.8" font-family="Times,serif" font-size="14.00">level_id :integer</text>
<text text-anchor="start" x="530.495" y="-201.8" font-family="Times,serif" font-size="14.00">table_name :string</text>
<text text-anchor="start" x="530.495" y="-187.8" font-family="Times,serif" font-size="14.00">created_at :datetime</text>
<text text-anchor="start" x="530.495" y="-173.8" font-family="Times,serif" font-size="14.00">updated_at :datetime</text>
</g>
<!-- Level&#45;&gt;LevelSchema -->
<g id="edge5" class="edge"><title>Level&#45;&gt;LevelSchema</title>
<path fill="none" stroke="#ac6357" d="M666.298,-315.001C655.477,-301.422 644.635,-287.816 634.638,-275.271"/>
<ellipse fill="none" stroke="#ac6357" cx="669.053" cy="-318.458" rx="4.00002" ry="4.00002"/>
<polygon fill="#ac6357" stroke="#ac6357" points="634.431,-275.011 631.718,-264.386 631.315,-271.101 628.199,-267.191 628.199,-267.191 628.199,-267.191 631.315,-271.101 624.679,-269.995 634.431,-275.011 634.431,-275.011"/>
</g>
<!-- LevelTest -->
<g id="node6" class="node"><title>LevelTest</title>
<path fill="none" stroke="black" d="M685.546,-153C685.546,-153 798.454,-153 798.454,-153 804.454,-153 810.454,-159 810.454,-165 810.454,-165 810.454,-269 810.454,-269 810.454,-275 804.454,-281 798.454,-281 798.454,-281 685.546,-281 685.546,-281 679.546,-281 673.546,-275 673.546,-269 673.546,-269 673.546,-165 673.546,-165 673.546,-159 679.546,-153 685.546,-153"/>
<text text-anchor="middle" x="742" y="-265.8" font-family="Times,serif" font-size="14.00">LevelTest</text>
<polyline fill="none" stroke="black" points="673.546,-259 810.454,-259 "/>
<text text-anchor="start" x="681.546" y="-243.8" font-family="Times,serif" font-size="14.00">id :integer</text>
<text text-anchor="start" x="681.546" y="-229.8" font-family="Times,serif" font-size="14.00">level_id :integer</text>
<text text-anchor="start" x="681.546" y="-215.8" font-family="Times,serif" font-size="14.00">test_query :text</text>
<text text-anchor="start" x="681.546" y="-201.8" font-family="Times,serif" font-size="14.00">expected_output :text</text>
<text text-anchor="start" x="681.546" y="-187.8" font-family="Times,serif" font-size="14.00">error_message :string</text>
<text text-anchor="start" x="681.546" y="-173.8" font-family="Times,serif" font-size="14.00">created_at :datetime</text>
<text text-anchor="start" x="681.546" y="-159.8" font-family="Times,serif" font-size="14.00">updated_at :datetime</text>
</g>
<!-- Level&#45;&gt;LevelTest -->
<g id="edge4" class="edge"><title>Level&#45;&gt;LevelTest</title>
<path fill="none" stroke="#cb80f2" d="M742,-310.691C742,-304.231 742,-297.791 742,-291.489"/>
<ellipse fill="none" stroke="#cb80f2" cx="742" cy="-314.779" rx="4" ry="4"/>
<polygon fill="#cb80f2" stroke="#cb80f2" points="742,-291.032 746.5,-281.032 742,-286.032 742,-281.032 742,-281.032 742,-281.032 742,-286.032 737.5,-281.032 742,-291.032 742,-291.032"/>
</g>
<!-- UserDatabase -->
<g id="node9" class="node"><title>UserDatabase</title>
<path fill="none" stroke="black" d="M991.495,-160C991.495,-160 1100.51,-160 1100.51,-160 1106.51,-160 1112.51,-166 1112.51,-172 1112.51,-172 1112.51,-262 1112.51,-262 1112.51,-268 1106.51,-274 1100.51,-274 1100.51,-274 991.495,-274 991.495,-274 985.495,-274 979.495,-268 979.495,-262 979.495,-262 979.495,-172 979.495,-172 979.495,-166 985.495,-160 991.495,-160"/>
<text text-anchor="middle" x="1046" y="-258.8" font-family="Times,serif" font-size="14.00">UserDatabase</text>
<polyline fill="none" stroke="black" points="979.495,-252 1112.51,-252 "/>
<text text-anchor="start" x="987.495" y="-236.8" font-family="Times,serif" font-size="14.00">id :integer</text>
<text text-anchor="start" x="987.495" y="-222.8" font-family="Times,serif" font-size="14.00">name :string</text>
<text text-anchor="start" x="987.495" y="-208.8" font-family="Times,serif" font-size="14.00">user_id :integer</text>
<text text-anchor="start" x="987.495" y="-194.8" font-family="Times,serif" font-size="14.00">created_at :datetime</text>
<text text-anchor="start" x="987.495" y="-180.8" font-family="Times,serif" font-size="14.00">updated_at :datetime</text>
<text text-anchor="start" x="987.495" y="-166.8" font-family="Times,serif" font-size="14.00">level_id :integer</text>
</g>
<!-- Level&#45;&gt;UserDatabase -->
<g id="edge2" class="edge"><title>Level&#45;&gt;UserDatabase</title>
<path fill="none" stroke="#c92413" d="M819.211,-346.064C833.58,-335.847 848.852,-326.017 864,-318 907.975,-294.727 926.666,-306.447 970,-282 971.315,-281.258 972.628,-280.493 973.939,-279.705"/>
<ellipse fill="none" stroke="#c92413" cx="815.919" cy="-348.439" rx="4.00002" ry="4.00002"/>
<polygon fill="#c92413" stroke="#c92413" points="974.107,-279.599 984.958,-278.018 978.323,-276.911 982.539,-274.223 982.539,-274.223 982.539,-274.223 978.323,-276.911 980.12,-270.429 974.107,-279.599 974.107,-279.599"/>
</g>
<!-- UserLevel -->
<g id="node10" class="node"><title>UserLevel</title>
<path fill="none" stroke="black" d="M840.495,-160C840.495,-160 949.505,-160 949.505,-160 955.505,-160 961.505,-166 961.505,-172 961.505,-172 961.505,-262 961.505,-262 961.505,-268 955.505,-274 949.505,-274 949.505,-274 840.495,-274 840.495,-274 834.495,-274 828.495,-268 828.495,-262 828.495,-262 828.495,-172 828.495,-172 828.495,-166 834.495,-160 840.495,-160"/>
<text text-anchor="middle" x="895" y="-258.8" font-family="Times,serif" font-size="14.00">UserLevel</text>
<polyline fill="none" stroke="black" points="828.495,-252 961.505,-252 "/>
<text text-anchor="start" x="836.495" y="-236.8" font-family="Times,serif" font-size="14.00">id :integer</text>
<text text-anchor="start" x="836.495" y="-222.8" font-family="Times,serif" font-size="14.00">user_id :integer</text>
<text text-anchor="start" x="836.495" y="-208.8" font-family="Times,serif" font-size="14.00">level_id :integer</text>
<text text-anchor="start" x="836.495" y="-194.8" font-family="Times,serif" font-size="14.00">completed :boolean</text>
<text text-anchor="start" x="836.495" y="-180.8" font-family="Times,serif" font-size="14.00">created_at :datetime</text>
<text text-anchor="start" x="836.495" y="-166.8" font-family="Times,serif" font-size="14.00">updated_at :datetime</text>
</g>
<!-- Level&#45;&gt;UserLevel -->
<g id="edge6" class="edge"><title>Level&#45;&gt;UserLevel</title>
<path fill="none" stroke="#1ea49b" d="M817.588,-315.145C826.5,-303.96 835.429,-292.755 843.891,-282.137"/>
<ellipse fill="none" stroke="#1ea49b" cx="814.947" cy="-318.458" rx="4.00002" ry="4.00002"/>
<polygon fill="#1ea49b" stroke="#1ea49b" points="844.03,-281.962 853.782,-276.946 847.146,-278.052 850.262,-274.141 850.262,-274.141 850.262,-274.141 847.146,-278.052 846.743,-271.337 844.03,-281.962 844.03,-281.962"/>
</g>
<!-- SchemaColumn -->
<g id="node7" class="node"><title>SchemaColumn</title>
<path fill="none" stroke="black" d="M396.833,-1C396.833,-1 529.167,-1 529.167,-1 535.167,-1 541.167,-7 541.167,-13 541.167,-13 541.167,-103 541.167,-103 541.167,-109 535.167,-115 529.167,-115 529.167,-115 396.833,-115 396.833,-115 390.833,-115 384.833,-109 384.833,-103 384.833,-103 384.833,-13 384.833,-13 384.833,-7 390.833,-1 396.833,-1"/>
<text text-anchor="middle" x="463" y="-99.8" font-family="Times,serif" font-size="14.00">SchemaColumn</text>
<polyline fill="none" stroke="black" points="384.833,-93 541.167,-93 "/>
<text text-anchor="start" x="392.833" y="-77.8" font-family="Times,serif" font-size="14.00">id :integer</text>
<text text-anchor="start" x="392.833" y="-63.8" font-family="Times,serif" font-size="14.00">level_schema_id :integer</text>
<text text-anchor="start" x="392.833" y="-49.8" font-family="Times,serif" font-size="14.00">column_name :string</text>
<text text-anchor="start" x="392.833" y="-35.8" font-family="Times,serif" font-size="14.00">column_type :string</text>
<text text-anchor="start" x="392.833" y="-21.8" font-family="Times,serif" font-size="14.00">created_at :datetime</text>
<text text-anchor="start" x="392.833" y="-7.8" font-family="Times,serif" font-size="14.00">updated_at :datetime</text>
</g>
<!-- LevelSchema&#45;&gt;SchemaColumn -->
<g id="edge9" class="edge"><title>LevelSchema&#45;&gt;SchemaColumn</title>
<path fill="none" stroke="#73c4c6" d="M544.167,-160.137C534.558,-148.164 524.333,-135.422 514.494,-123.164"/>
<ellipse fill="none" stroke="#73c4c6" cx="546.975" cy="-163.635" rx="4.00002" ry="4.00002"/>
<polygon fill="#73c4c6" stroke="#73c4c6" points="514.355,-122.989 511.605,-112.374 511.225,-119.09 508.095,-115.19 508.095,-115.19 508.095,-115.19 511.225,-119.09 504.586,-118.007 514.355,-122.989 514.355,-122.989"/>
</g>
<!-- User -->
<g id="node8" class="node"><title>User</title>
<path fill="none" stroke="black" d="M739.988,-541C739.988,-541 870.012,-541 870.012,-541 876.012,-541 882.012,-547 882.012,-553 882.012,-553 882.012,-671 882.012,-671 882.012,-677 876.012,-683 870.012,-683 870.012,-683 739.988,-683 739.988,-683 733.988,-683 727.988,-677 727.988,-671 727.988,-671 727.988,-553 727.988,-553 727.988,-547 733.988,-541 739.988,-541"/>
<text text-anchor="middle" x="805" y="-667.8" font-family="Times,serif" font-size="14.00">User</text>
<polyline fill="none" stroke="black" points="727.988,-661 882.012,-661 "/>
<text text-anchor="start" x="735.988" y="-645.8" font-family="Times,serif" font-size="14.00">id :integer</text>
<text text-anchor="start" x="735.988" y="-631.8" font-family="Times,serif" font-size="14.00">user_name :string</text>
<text text-anchor="start" x="735.988" y="-617.8" font-family="Times,serif" font-size="14.00">email :string</text>
<text text-anchor="start" x="735.988" y="-603.8" font-family="Times,serif" font-size="14.00">password_digest :string</text>
<text text-anchor="start" x="735.988" y="-589.8" font-family="Times,serif" font-size="14.00">created_at :datetime</text>
<text text-anchor="start" x="735.988" y="-575.8" font-family="Times,serif" font-size="14.00">updated_at :datetime</text>
<text text-anchor="start" x="735.988" y="-561.8" font-family="Times,serif" font-size="14.00">guest :boolean</text>
<text text-anchor="start" x="735.988" y="-547.8" font-family="Times,serif" font-size="14.00">last_logged_in :datetime</text>
</g>
<!-- User&#45;&gt;Level -->
<g id="edge14" class="edge"><title>User&#45;&gt;Level</title>
<path fill="none" stroke="#36f1b5" d="M779.766,-531.292C777.842,-525.215 775.886,-519.037 773.928,-512.851"/>
<polygon fill="#36f1b5" stroke="#36f1b5" points="779.77,-531.306 778.498,-542.198 781.279,-536.073 782.789,-540.84 782.789,-540.84 782.789,-540.84 781.279,-536.073 787.079,-539.482 779.77,-531.306 779.77,-531.306"/>
<polygon fill="#36f1b5" stroke="#36f1b5" points="773.871,-512.672 775.143,-501.78 772.362,-507.905 770.853,-503.138 770.853,-503.138 770.853,-503.138 772.362,-507.905 766.563,-504.497 773.871,-512.672 773.871,-512.672"/>
</g>
<!-- User&#45;&gt;UserDatabase -->
<g id="edge15" class="edge"><title>User&#45;&gt;UserDatabase</title>
<path fill="none" stroke="#405f59" d="M852.542,-533.473C897.813,-459.65 965.115,-349.899 1007.23,-281.225"/>
<ellipse fill="none" stroke="#405f59" cx="850.177" cy="-537.33" rx="4.00002" ry="4.00002"/>
<ellipse fill="#405f59" stroke="#405f59" cx="1009.39" cy="-277.707" rx="4.00002" ry="4.00002"/>
</g>
<!-- User&#45;&gt;UserLevel -->
<g id="edge13" class="edge"><title>User&#45;&gt;UserLevel</title>
<path fill="none" stroke="#e02907" d="M818.509,-532.783C829.292,-473.48 845.603,-390.153 864,-318 866.831,-306.898 870.147,-295.2 873.538,-283.873"/>
<ellipse fill="none" stroke="#e02907" cx="817.737" cy="-537.052" rx="4.00001" ry="4.00001"/>
<polygon fill="#e02907" stroke="#e02907" points="873.619,-283.607 880.833,-275.348 875.073,-278.823 876.527,-274.039 876.527,-274.039 876.527,-274.039 875.073,-278.823 872.221,-272.73 873.619,-283.607 873.619,-283.607"/>
</g>
<!-- Object -->
<g id="node11" class="node"><title>Object</title>
<ellipse fill="none" stroke="black" cx="258" cy="-757" rx="33.5181" ry="18"/>
<text text-anchor="middle" x="258" y="-752.8" font-family="Times,serif" font-size="14.00">Object</text>
</g>
<!-- Object&#45;&gt;GameResponse -->
<g id="edge1" class="edge"><title>Object&#45;&gt;GameResponse</title>
<path fill="none" stroke="black" d="M258,-738.751C258,-712.454 258,-662.407 258,-634.022"/>
</g>
<!-- ActiveRecord::Base -->
<g id="node12" class="node"><title>ActiveRecord::Base</title>
<ellipse fill="none" stroke="black" cx="669" cy="-757" rx="80.9821" ry="18"/>
<text text-anchor="middle" x="669" y="-752.8" font-family="Times,serif" font-size="14.00">ActiveRecord::Base</text>
</g>
<!-- ActiveRecord::Base&#45;&gt;Level -->
<g id="edge7" class="edge"><title>ActiveRecord::Base&#45;&gt;Level</title>
<path fill="none" stroke="black" d="M672.62,-738.941C681.596,-696.643 705.396,-584.49 722.62,-503.325"/>
</g>
<!-- ActiveRecord::Base&#45;&gt;LevelPage -->
<g id="edge8" class="edge"><title>ActiveRecord::Base&#45;&gt;LevelPage</title>
<path fill="none" stroke="black" d="M649.699,-739.339C634.931,-725.719 614.962,-705.295 602,-684 519.335,-548.189 468.934,-365.307 447.336,-274.312"/>
</g>
<!-- ActiveRecord::Base&#45;&gt;LevelSchema -->
<g id="edge10" class="edge"><title>ActiveRecord::Base&#45;&gt;LevelSchema</title>
<path fill="none" stroke="black" d="M658.544,-738.941C650.4,-724.771 639.573,-703.801 634,-684 592.434,-536.324 587.699,-353.086 588.079,-267.006"/>
</g>
<!-- ActiveRecord::Base&#45;&gt;LevelTest -->
<g id="edge11" class="edge"><title>ActiveRecord::Base&#45;&gt;LevelTest</title>
<path fill="none" stroke="black" d="M664.659,-738.627C650.428,-678.309 609.102,-473.171 663,-318 667.465,-305.146 674.343,-292.697 682.219,-281.2"/>
</g>
<!-- ActiveRecord::Base&#45;&gt;SchemaColumn -->
<g id="edge12" class="edge"><title>ActiveRecord::Base&#45;&gt;SchemaColumn</title>
<path fill="none" stroke="black" d="M624.241,-741.832C594.228,-730.365 555.647,-711.551 530,-684 397.468,-541.631 396.252,-472.507 357,-282 345.34,-225.411 333.16,-204.63 357,-152 363.515,-137.616 373.477,-124.577 384.733,-113.117"/>
</g>
<!-- ActiveRecord::Base&#45;&gt;User -->
<g id="edge16" class="edge"><title>ActiveRecord::Base&#45;&gt;User</title>
<path fill="none" stroke="black" d="M684.867,-739.316C698.25,-725.244 718.367,-704.093 738.33,-683.102"/>
</g>
<!-- ActiveRecord::Base&#45;&gt;UserDatabase -->
<g id="edge17" class="edge"><title>ActiveRecord::Base&#45;&gt;UserDatabase</title>
<path fill="none" stroke="black" d="M749.54,-754.4C807.399,-748.892 883.155,-732.041 930,-684 1039.86,-571.334 1050.78,-371.48 1048.94,-274.254"/>
</g>
<!-- ActiveRecord::Base&#45;&gt;UserLevel -->
<g id="edge18" class="edge"><title>ActiveRecord::Base&#45;&gt;UserLevel</title>
<path fill="none" stroke="black" d="M747.849,-752.696C797.567,-746.04 858.347,-728.514 891,-684 980.605,-561.845 941.268,-369.073 913.677,-274.344"/>
</g>
</g>
</svg>
